<svg id="Layer_1" data-name="Layer 1" xmlns="http://www.w3.org/2000/svg" viewBox="0 0 16 16"><defs><style>.cls-1{fill:#2a2a72;}.cls-2{fill:#ffc093;}</style></defs><rect class="cls-1" width="16" height="16"/><path class="cls-2" d="M15.31,10.75h0a5.27,5.27,0,0,0-2.93-1.47.21.21,0,0,0-.12,0,.14.14,0,0,0-.06.11.15.15,0,0,0,.13.18,5,5,0,0,1,2.55,1.18l.09.08-.09.08a5,5,0,0,1-3.21,1.24h-.09a5,5,0,0,1-3-1L8.35,11l.26,0a5.32,5.32,0,0,0,4.63-5.22.16.16,0,0,0-.05-.11.13.13,0,0,0-.11-.05h0A5.2,5.2,0,0,0,10,6.6a.16.16,0,0,0,0,.22.12.12,0,0,0,.1.06.16.16,0,0,0,.12,0,4.93,4.93,0,0,1,2.59-.93h.12V6A5,5,0,0,1,8.6,10.66l-.26,0,.16-.2a5.28,5.28,0,0,0-.4-6.94A.14.14,0,0,0,8,3.5a.16.16,0,0,0-.11,0A5.21,5.21,0,0,0,6.41,6.47a.21.21,0,0,0,0,.12.19.19,0,0,0,.11.07.16.16,0,0,0,.18-.14A4.9,4.9,0,0,1,7.91,4L8,3.89,8.07,4A4.89,4.89,0,0,1,9.29,7.32a5,5,0,0,1-1,2.95l-.16.2,0-.26A5.3,5.3,0,0,0,2.92,5.6h0a.17.17,0,0,0-.16.16v.51a5.28,5.28,0,0,0,.92,2.47.16.16,0,0,0,.22,0A.17.17,0,0,0,4,8.68a.16.16,0,0,0,0-.12,5,5,0,0,1-.86-2.31V5.92h.11a5,5,0,0,1,4.56,4.3l0,.25-.21-.15a5.28,5.28,0,0,0-6.89.4.15.15,0,0,0,0,.11.17.17,0,0,0,0,.12L1,11.3v0a5.27,5.27,0,0,0,3.32,1.17h0a5.23,5.23,0,0,0,2.67-.73.14.14,0,0,0,.07-.1.17.17,0,0,0,0-.12.23.23,0,0,0-.1-.07.16.16,0,0,0-.12,0,4.93,4.93,0,0,1-2.51.68h0a5,5,0,0,1-3.1-1.09L1,10.85l.09-.08a5,5,0,0,1,6.73.2h0a5.32,5.32,0,0,0,7.46,0,.17.17,0,0,0,0-.22Z"/></svg>