<svg width="66" height="26" viewBox="0 0 66 26" fill="none" xmlns="http://www.w3.org/2000/svg">
<path d="M17.4734 1.07347C16.8857 2.76326 15.9796 3.6449 14.2653 3.6449C10.8367 3.6449 8.09385 2.07755 6.84487 2.07755C4.8612 2.07755 3.6612 4.01224 3.6612 5.35918C3.6612 11.0653 17.8163 8.49388 17.8163 17.0898C17.8163 21.1061 14.4857 25.3429 8.68161 25.3429C3.93059 25.3429 0.502014 22.3796 0.502014 18.8041C0.502014 16.2327 2.7061 14.4449 5.08161 14.4449C7.70201 14.4449 10.8122 15.9878 10.8122 18.8776C10.8122 19.9796 9.9061 21.498 8.06936 21.498C6.59997 21.498 5.84079 20.6163 5.44895 19.8571L5.69385 19.6367C6.3061 20.0041 6.74691 20.2245 7.18773 20.2245C8.28977 20.2245 9.26936 19.1224 9.26936 18.0204C9.26936 16.3306 7.62854 15.2776 5.98773 15.2776C3.93059 15.2776 2.26528 16.9673 2.26528 19.1959C2.26528 21.7918 4.49385 24.7061 9.02446 24.7061C13.1632 24.7061 15.9796 21.302 15.9796 18.0939C15.9796 10.7469 2.38773 14.102 2.38773 6.36327C2.38773 3.30204 5.15508 0.632652 8.33875 0.632652C10.9592 0.632652 12.7714 1.88163 14.5102 1.88163C15.9306 1.88163 16.3714 1.41633 17.2775 0.853061L17.4734 1.07347Z" fill="#FFC093"/>
<path d="M26.7306 16.6245C27.7592 16.6245 28.298 17.6775 28.298 18.7061V23.0653C28.298 23.8245 28.5184 24.0204 28.8857 24.0204C29.3266 24.0204 29.6939 23.7755 30.9674 22.1837L31.2123 22.4286C30.2327 23.7755 28.7633 25.3429 27.8082 25.3429C26.9021 25.3429 26.6082 24.8041 26.6082 22.9184V19.8571C26.6082 18.9755 26.6082 17.8 25.7755 17.8C24.8694 17.8 23.6204 19 23.1062 20.8612V24.5102L21.3919 25.3184V19.8327C20.7306 20.7388 19.849 21.8163 19.2613 22.5265L19.0164 22.2327C20.3388 20.5918 21.3919 19.4163 21.3919 17.8735V10.1837C21.3919 5.82449 23.4735 3.57143 25.5551 3.57143C26.8286 3.57143 27.5633 4.55102 27.5633 5.99592C27.5633 7.83265 26.3143 10.5265 25.3347 12.3878L23.1062 16.5265V19.5143C24.0368 17.9714 25.2368 16.6245 26.7306 16.6245ZM26.3388 6.2653C26.3388 5.08979 25.8245 4.06122 25.0898 4.06122C23.8408 4.06122 23.1062 5.82449 23.1062 9.32653V15.2531C24.2817 13.098 26.3388 8.76326 26.3388 6.2653Z" fill="#FFC093"/>
<path d="M34.6653 25.3673C33.7102 25.3673 33.2449 24.9755 33.2449 23.6041V19.8816C32.5837 20.7878 31.702 21.8653 31.1143 22.5755L30.8694 22.2816C32.1918 20.6408 33.2449 19.4653 33.2449 17.9225V17.6041L34.9592 16.698V23.4327C34.9592 23.8245 35.1796 24.0449 35.4735 24.0449C36.2082 24.0449 36.5265 23.9469 37.9714 22.1837L38.2163 22.4286C37.1878 23.7755 35.6939 25.3673 34.6653 25.3673ZM34.0531 14.1755L33 12.7796L34.0531 11.4327L35.1061 12.7796L34.0531 14.1755Z" fill="#FFC093"/>
<path d="M53.6694 13.4653C56.2408 12.2898 57.2204 10.6245 57.2204 7.97959C57.2204 5.38367 55.7265 1.88163 50.8285 1.88163C46.0775 1.88163 41.6204 5.50612 41.6204 10.4286C41.6204 13.3918 43.4571 14.5673 45.1959 14.5673C46.1755 14.5673 46.3714 14.2735 47.1061 13.5143L47.351 13.6857C46.3714 15.6694 45.1959 16.1347 43.8 16.1347C42.1837 16.1347 40.151 14.8612 40.151 11.5551C40.151 6.2653 44.8041 0.951019 52.102 0.951019C57.1959 0.951019 59.2775 3.79184 59.2775 6.7551C59.2775 11.2122 55.7265 13.4408 53.6939 13.8571V13.4653H53.6694ZM53.5224 4.08571C52.4204 5.50612 52.1265 6.97551 52.1265 8.54286C52.1265 10.9673 52.9347 13.1224 52.9347 16.1592C52.9347 22.8204 49.1388 25.3673 45.9551 25.3673C43.2612 25.3673 41.2286 23.751 41.0081 20.8612C41.6939 20.5429 42.4286 20.2735 43.3592 20.3959C43.1143 20.9837 42.9918 21.449 42.9918 21.8898C42.9918 22.9429 44.1184 24.7796 46.1265 24.7796C48.5755 24.7796 50.7796 22.9918 50.7796 17.3837C50.7796 14.4939 50.2408 12.8041 50.2408 11.0653C50.2408 7.04898 52.102 4.82041 53.2775 3.79184L53.5224 4.08571Z" fill="#FFC093"/>
<path d="M54.8449 22.5755L54.551 22.2816C57 19.3184 56.8531 16.8694 61.1388 16.8694C63.2204 16.8694 64.3469 18.0449 64.3469 20.0041C64.3469 22.6 61.8 25.3429 58.9102 25.3429C56.7551 25.3429 55.8 23.849 55.5061 21.9143L54.8449 22.5755ZM60.1347 24.3633C61.4082 24.3633 62.9755 23.2367 62.9755 20.9347C62.9755 19.2449 61.849 17.5796 60.1347 17.5796C57.9796 17.5796 57.2449 19.6612 57.2449 21.1306C57.2449 22.4286 58.102 24.3633 60.1347 24.3633ZM62.8776 24.7306L61.7755 24.902L62.6816 24.5102C63.2204 24.2653 63.8082 23.9224 65.2286 22.1592L65.4735 22.4041C64.4939 23.7755 63.7592 24.4857 62.8776 24.7306Z" fill="#FFC093"/>
</svg>
