<svg width="180" height="55" viewBox="0 0 180 55" fill="none" xmlns="http://www.w3.org/2000/svg">
<g clip-path="url(#clip0_2_97)">
<path d="M86.2594 43.2128C81.617 38.6215 75.7247 35.6796 69.2521 34.7435C69.0736 34.6989 68.8504 34.7435 68.7165 34.8772C68.5379 35.0109 68.4486 35.1892 68.404 35.3675C68.3594 35.7687 68.6272 36.1699 69.0289 36.2145C74.6087 37.0168 79.7868 39.4239 83.9828 43.1236L84.6524 43.7477L83.9828 44.3717C78.8047 48.9184 72.109 51.5038 65.1454 51.6375C64.9668 51.6375 64.7883 51.6375 64.6097 51.6375C58.2264 51.6375 51.9324 49.5425 46.8883 45.709L45.3259 44.5055L47.29 44.238C62.5117 42.2767 74.0731 29.2607 74.1623 14.016C74.1623 13.8377 74.0731 13.6148 73.9391 13.4811C73.8052 13.3474 73.582 13.2582 73.4481 13.2582H73.4035C66.9756 13.3028 60.8601 15.3087 55.7267 19.053C55.4142 19.2759 55.3249 19.7662 55.5481 20.0782C55.682 20.2565 55.816 20.3457 56.0392 20.3902C56.2177 20.4348 56.4409 20.3902 56.5748 20.2565C61.0387 17.0471 66.2613 15.1304 71.7519 14.8183L72.6893 14.7738L72.6446 15.7098C72.1983 22.931 69.0289 29.7065 63.8062 34.7881C59.2531 39.201 53.5394 41.9647 47.29 42.8116L45.3259 43.0791L46.5312 41.5189C55.9499 29.3944 54.9678 12.0992 44.2546 1.31203C44.0761 1.08915 43.8975 1 43.6743 1C43.4958 1 43.2726 1.08915 43.1387 1.22288C38.5409 5.8587 35.5948 11.7426 34.6574 18.2061C34.6127 18.6072 34.8806 19.0084 35.2823 19.053C35.684 19.0976 36.0411 18.8301 36.1304 18.4289C36.9786 12.857 39.3444 7.68629 43.094 3.45164L43.6743 2.78301L44.2993 3.45164C49.0309 8.84525 51.5753 15.799 51.4414 23.1093C51.3075 29.439 49.2541 35.4121 45.4152 40.36L44.21 41.9201L43.9421 39.9588C41.9781 24.8478 29.1222 13.3919 14.0344 13.2136C13.8112 13.2136 13.6327 13.3028 13.4988 13.4365C13.3648 13.5702 13.2756 13.7485 13.2756 13.9714V16.8242C13.2756 16.8688 13.2756 16.8688 13.2756 16.9134C13.8112 22.0395 15.6414 26.9874 18.5875 31.222C18.8107 31.5341 19.3017 31.6232 19.6142 31.4003C19.7928 31.2666 19.882 31.1329 19.9267 30.91C19.9713 30.7317 19.9267 30.5088 19.7928 30.3751C17.0698 26.4079 15.3289 21.7275 14.8379 16.8688V16.7796V14.7292L15.686 14.7738C22.8282 15.2641 29.5239 18.3844 34.5681 23.6442C38.9426 28.1909 41.6656 33.852 42.5137 40.0034L42.7815 41.9647L41.2192 40.7611C29.2115 31.5341 12.0257 32.5593 1.22319 43.1236C1.08928 43.2574 1 43.4357 1 43.614C1 43.7923 1.08928 44.0151 1.22319 44.1489L3.23192 46.1548C3.27656 46.1993 3.27656 46.1993 3.27656 46.1993C8.67781 50.6123 15.5075 53.0193 22.5157 53.0193H22.5603C28.0062 53.0193 33.4075 51.5484 38.0499 48.7847C38.2284 48.6955 38.3623 48.5172 38.407 48.3389C38.4516 48.1606 38.407 47.9378 38.3177 47.7595C38.2284 47.5812 38.0499 47.4474 37.8713 47.4029C37.6928 47.3583 37.4696 47.4029 37.291 47.492C32.8272 50.1219 27.7384 51.5038 22.5603 51.5038H22.4711C15.8646 51.5038 9.39202 49.2304 4.2586 45.0849L4.21396 45.0404L2.78554 43.614L3.45511 43.0345C8.85636 38.3095 15.82 35.7687 23.0514 35.9024C30.5953 36.0362 37.6481 39.0227 42.9601 44.238C48.7185 49.9436 56.3963 53.0639 64.5651 53.0639C72.7339 53.0639 80.4564 49.9436 86.2147 44.238C86.3486 44.1043 86.4379 43.926 86.4379 43.7031C86.4825 43.5248 86.3933 43.3465 86.2594 43.2128Z" fill="white"/>
<path d="M86.2594 43.2128C81.617 38.6215 75.7247 35.6796 69.2521 34.7435C69.0736 34.6989 68.8504 34.7435 68.7165 34.8772C68.5379 35.0109 68.4486 35.1892 68.404 35.3675C68.3594 35.7687 68.6272 36.1699 69.0289 36.2145C74.6087 37.0168 79.7868 39.4239 83.9828 43.1236L84.6524 43.7477L83.9828 44.3717C78.8047 48.9184 72.109 51.5038 65.1454 51.6375C64.9668 51.6375 64.7883 51.6375 64.6097 51.6375C58.2264 51.6375 51.9324 49.5425 46.8883 45.709L45.3259 44.5055L47.29 44.238C62.5117 42.2767 74.0731 29.2607 74.1623 14.016C74.1623 13.8377 74.0731 13.6148 73.9391 13.4811C73.8052 13.3474 73.582 13.2582 73.4481 13.2582H73.4035C66.9756 13.3028 60.8601 15.3087 55.7267 19.053C55.4142 19.2759 55.3249 19.7662 55.5481 20.0782C55.682 20.2565 55.816 20.3457 56.0392 20.3902C56.2177 20.4348 56.4409 20.3902 56.5748 20.2565C61.0387 17.0471 66.2613 15.1304 71.7519 14.8183L72.6893 14.7738L72.6446 15.7098C72.1983 22.931 69.0289 29.7065 63.8062 34.7881C59.2531 39.201 53.5394 41.9647 47.29 42.8116L45.3259 43.0791L46.5312 41.5189C55.9499 29.3944 54.9678 12.0992 44.2546 1.31203C44.0761 1.08915 43.8975 1 43.6743 1C43.4958 1 43.2726 1.08915 43.1387 1.22288C38.5409 5.8587 35.5948 11.7426 34.6574 18.2061C34.6127 18.6072 34.8806 19.0084 35.2823 19.053C35.684 19.0976 36.0411 18.8301 36.1304 18.4289C36.9786 12.857 39.3444 7.68629 43.094 3.45164L43.6743 2.78301L44.2993 3.45164C49.0309 8.84525 51.5753 15.799 51.4414 23.1093C51.3075 29.439 49.2541 35.4121 45.4152 40.36L44.21 41.9201L43.9421 39.9588C41.9781 24.8478 29.1222 13.3919 14.0344 13.2136C13.8112 13.2136 13.6327 13.3028 13.4988 13.4365C13.3648 13.5702 13.2756 13.7485 13.2756 13.9714V16.8242C13.2756 16.8688 13.2756 16.8688 13.2756 16.9134C13.8112 22.0395 15.6414 26.9874 18.5875 31.222C18.8107 31.5341 19.3017 31.6232 19.6142 31.4003C19.7928 31.2666 19.882 31.1329 19.9267 30.91C19.9713 30.7317 19.9267 30.5088 19.7928 30.3751C17.0698 26.4079 15.3289 21.7275 14.8379 16.8688V16.7796V14.7292L15.686 14.7738C22.8282 15.2641 29.5239 18.3844 34.5681 23.6442C38.9426 28.1909 41.6656 33.852 42.5137 40.0034L42.7815 41.9647L41.2192 40.7611C29.2115 31.5341 12.0257 32.5593 1.22319 43.1236C1.08928 43.2574 1 43.4357 1 43.614C1 43.7923 1.08928 44.0151 1.22319 44.1489L3.23192 46.1548C3.27656 46.1993 3.27656 46.1993 3.27656 46.1993C8.67781 50.6123 15.5075 53.0193 22.5157 53.0193H22.5603C28.0062 53.0193 33.4075 51.5484 38.0499 48.7847C38.2284 48.6955 38.3623 48.5172 38.407 48.3389C38.4516 48.1606 38.407 47.9378 38.3177 47.7595C38.2284 47.5812 38.0499 47.4474 37.8713 47.4029C37.6928 47.3583 37.4696 47.4029 37.291 47.492C32.8272 50.122 27.7384 51.5038 22.5603 51.5038H22.4711C15.8646 51.5038 9.39202 49.2304 4.2586 45.0849L4.21397 45.0404L2.78554 43.614L3.45511 43.0345C8.85636 38.3095 15.82 35.7687 23.0514 35.9024C30.5953 36.0362 37.6481 39.0227 42.9601 44.238C48.7185 49.9436 56.3963 53.0639 64.5651 53.0639C72.7339 53.0639 80.4564 49.9436 86.2147 44.238C86.3486 44.1043 86.4379 43.926 86.4379 43.7031C86.4825 43.5248 86.3933 43.3465 86.2594 43.2128Z" stroke="white" stroke-width="2" stroke-miterlimit="10"/>
<path d="M114.605 10.9403C113.801 13.2137 112.596 14.4172 110.275 14.4172C105.632 14.4172 101.927 12.2776 100.231 12.2776C97.5529 12.2776 95.9459 14.9075 95.9459 16.7351C95.9459 24.4466 115.096 20.9698 115.096 32.5593C115.096 37.9975 110.587 43.7031 102.731 43.7031C96.303 43.7031 91.6606 39.6914 91.6606 34.8772C91.6606 31.4004 94.6067 28.9933 97.8207 28.9933C101.392 28.9933 105.588 31.0883 105.588 34.9664C105.588 36.4374 104.338 38.5324 101.883 38.5324C99.9187 38.5324 98.8474 37.3289 98.3117 36.3036L98.6688 35.9916C99.517 36.4819 100.097 36.794 100.678 36.794C102.151 36.794 103.49 35.323 103.49 33.852C103.49 31.5787 101.258 30.1523 99.0259 30.1523C96.2584 30.1523 93.9818 32.4256 93.9818 35.4121C93.9818 38.9336 97.0172 42.8562 103.133 42.8562C108.712 42.8562 112.507 38.265 112.507 33.9412C112.507 24.0009 94.1157 28.5476 94.1157 18.1169C94.1157 13.9714 97.8653 10.3608 102.151 10.3608C105.722 10.3608 108.132 12.0547 110.498 12.0547C112.417 12.0547 112.998 11.4306 114.248 10.6729L114.605 10.9403Z" fill="white"/>
<path d="M127.104 31.9354C128.487 31.9354 129.246 33.3618 129.246 34.7436V40.6275C129.246 41.6528 129.559 41.9202 130.05 41.9202C130.63 41.9202 131.121 41.5636 132.862 39.4686L133.219 39.8252C131.88 41.6528 129.916 43.7924 128.621 43.7924C127.371 43.7924 126.97 43.0346 126.97 40.5384V36.3929C126.97 35.1894 126.97 33.6292 125.854 33.6292C124.604 33.6292 122.952 35.2785 122.238 37.7747V42.7226L119.917 43.7924V36.3483C119.024 37.5964 117.819 39.0228 117.06 40.0035L116.703 39.6023C118.488 37.3735 119.917 35.8134 119.917 33.7184V23.2432C119.917 17.3592 122.729 14.3281 125.541 14.3281C127.282 14.3281 128.264 15.6654 128.264 17.5821C128.264 20.0338 126.568 23.6889 125.229 26.2297L122.193 31.8016V35.858C123.443 33.7629 125.095 31.9354 127.104 31.9354ZM126.568 17.9833C126.568 16.4232 125.854 15.0413 124.872 15.0413C123.175 15.0413 122.193 17.4038 122.193 22.1288V30.1078C123.8 27.2104 126.568 21.3264 126.568 17.9833Z" fill="white"/>
<path d="M137.817 43.7478C136.522 43.7478 135.897 43.2129 135.897 41.3853V36.3483C135.004 37.5964 133.799 39.0228 133.04 40.0035L132.683 39.6023C134.469 37.3735 135.897 35.8134 135.897 33.7183V33.2726L138.218 32.0245V41.1178C138.218 41.6527 138.531 41.9648 138.933 41.9648C139.915 41.9648 140.361 41.831 142.281 39.4686L142.638 39.8252C141.254 41.6082 139.2 43.7478 137.817 43.7478ZM137.013 28.6368L135.585 26.7646L137.013 24.937L138.442 26.7646L137.013 28.6368Z" fill="white"/>
<path d="M163.528 27.7005C167.01 26.1404 168.305 23.8671 168.305 20.301C168.305 16.7796 166.296 12.0546 159.645 12.0546C153.217 12.0546 147.191 16.9579 147.191 23.5996C147.191 27.6114 149.646 29.1715 152.056 29.1715C153.396 29.1715 153.619 28.7703 154.645 27.7451L155.002 28.0126C153.663 30.6871 152.101 31.3111 150.226 31.3111C148.039 31.3111 145.271 29.5727 145.271 25.1597C145.271 17.9831 151.565 10.8511 161.43 10.8511C168.305 10.8511 171.117 14.6845 171.117 18.6963C171.117 24.714 166.341 27.7451 163.573 28.28V27.7005H163.528ZM163.35 14.9966C161.877 16.9133 161.475 18.8746 161.475 21.0142C161.475 24.2682 162.546 27.1656 162.546 31.2666C162.546 40.2708 157.413 43.7031 153.083 43.7031C149.423 43.7031 146.7 41.5189 146.432 37.6408C147.369 37.1951 148.351 36.8385 149.601 37.0168C149.244 37.8191 149.11 38.4432 149.11 39.0226C149.11 40.4491 150.628 42.9007 153.351 42.9007C156.654 42.9007 159.645 40.4936 159.645 32.9158C159.645 29.0378 158.886 26.7644 158.886 24.3574C158.886 18.9192 161.386 15.9327 162.993 14.5508L163.35 14.9966Z" fill="white"/>
<path d="M165.135 40.0033L164.734 39.6021C168.037 35.5903 167.858 32.2917 173.617 32.2917C176.429 32.2917 177.947 33.8519 177.947 36.5264C177.947 40.0478 174.465 43.7476 170.581 43.7476C167.68 43.7476 166.385 41.7417 165.984 39.1118L165.135 40.0033ZM172.278 42.4103C174.018 42.4103 176.116 40.8948 176.116 37.7745C176.116 35.5012 174.599 33.2278 172.278 33.2278C169.376 33.2278 168.394 36.0361 168.394 37.9974C168.394 39.7804 169.51 42.4103 172.278 42.4103ZM175.983 42.9007L174.509 43.1681L175.759 42.6332C176.518 42.2766 177.277 41.8309 179.241 39.4684L179.554 39.7804C178.17 41.608 177.188 42.5441 175.983 42.9007Z" fill="white"/>
<path d="M91.616 53.153V49.7207H92.1516L93.6247 52.2169H93.3569L94.8299 49.7207H95.3656V53.153H94.7853V50.6568H94.8746L93.6247 52.7518H93.3569L92.0624 50.6568H92.2409V53.153H91.616Z" fill="white"/>
<path d="M95.812 53.153L97.3743 49.7207H97.9993L99.5616 53.153H98.892L97.5529 50.0773H97.8207L96.4815 53.153H95.812ZM96.5262 52.3506L96.7047 51.8603H98.5349L98.7135 52.3506H96.5262Z" fill="white"/>
<path d="M101.035 53.1977C100.767 53.1977 100.499 53.1531 100.276 53.064C100.053 52.9748 99.8294 52.8857 99.6955 52.752L99.9187 52.2616C100.053 52.3508 100.231 52.4399 100.41 52.5291C100.633 52.6182 100.811 52.6182 101.035 52.6182C101.213 52.6182 101.347 52.6182 101.481 52.5737C101.57 52.5291 101.66 52.4845 101.704 52.3954C101.749 52.3062 101.794 52.2616 101.794 52.1725C101.794 52.0833 101.749 51.9942 101.66 51.905C101.57 51.8605 101.481 51.7713 101.347 51.7713C101.213 51.7267 101.079 51.6822 100.945 51.6822C100.811 51.6376 100.633 51.593 100.499 51.5484C100.365 51.5039 100.231 51.4593 100.097 51.3701C99.9633 51.281 99.8741 51.1918 99.7848 51.1027C99.6955 50.969 99.6955 50.8352 99.6955 50.6569C99.6955 50.4786 99.7401 50.3003 99.8294 50.1666C99.9187 50.0329 100.097 49.8991 100.276 49.81C100.499 49.7208 100.722 49.6763 101.035 49.6763C101.258 49.6763 101.436 49.7208 101.66 49.7654C101.883 49.81 102.017 49.8991 102.195 49.9883L101.972 50.4786C101.838 50.3895 101.66 50.3003 101.481 50.2557C101.302 50.2112 101.169 50.2112 100.99 50.2112C100.811 50.2112 100.678 50.2112 100.544 50.2557C100.454 50.3003 100.365 50.3449 100.32 50.4341C100.276 50.5232 100.231 50.5678 100.231 50.6569C100.231 50.7461 100.276 50.8352 100.32 50.9244C100.41 50.969 100.499 51.0581 100.588 51.0581C100.722 51.1027 100.856 51.1473 100.99 51.1473C101.124 51.1473 101.302 51.2364 101.436 51.281C101.57 51.3256 101.704 51.3701 101.838 51.4593C101.972 51.5484 102.061 51.6376 102.151 51.7267C102.24 51.8605 102.24 51.9942 102.24 52.1725C102.24 52.3508 102.195 52.5291 102.106 52.6628C102.017 52.7965 101.838 52.9303 101.66 53.0194C101.615 53.1531 101.347 53.1977 101.035 53.1977Z" fill="white"/>
<path d="M102.597 53.153L104.159 49.7207H104.784L106.347 53.153H105.677L104.338 50.0773H104.606L103.267 53.153H102.597ZM103.311 52.3506L103.49 51.8603H105.32L105.499 52.3506H103.311Z" fill="white"/>
<path d="M107.329 53.1976C107.105 53.1976 106.927 53.153 106.748 53.0638C106.57 52.9747 106.391 52.841 106.302 52.7072L106.659 52.2615C106.748 52.3952 106.838 52.4844 106.972 52.5735C107.105 52.6181 107.195 52.6627 107.329 52.6627C107.686 52.6627 107.864 52.4398 107.864 52.0386V50.2556H106.659V49.7207H108.534V51.994C108.534 52.3952 108.445 52.7072 108.221 52.8855C107.998 53.1084 107.73 53.1976 107.329 53.1976Z" fill="white"/>
<path d="M110.052 52.6181H111.971V53.153H109.382V49.7207H111.882V50.2556H110.007V52.6181H110.052ZM110.007 51.1471H111.703V51.682H110.007V51.1471Z" fill="white"/>
<path d="M113.757 53.1977C113.489 53.1977 113.221 53.1531 112.998 53.064C112.775 52.9748 112.551 52.8857 112.417 52.752L112.641 52.2616C112.775 52.3508 112.953 52.4399 113.132 52.5291C113.355 52.6182 113.533 52.6182 113.757 52.6182C113.935 52.6182 114.069 52.6182 114.203 52.5737C114.292 52.5291 114.382 52.4845 114.426 52.3954C114.471 52.3062 114.515 52.2616 114.515 52.1725C114.515 52.0833 114.471 51.9942 114.382 51.905C114.292 51.8605 114.203 51.7713 114.069 51.7713C113.935 51.7267 113.801 51.6822 113.667 51.6822C113.533 51.6376 113.355 51.593 113.221 51.5484C113.087 51.5039 112.953 51.4593 112.819 51.3701C112.685 51.281 112.596 51.1918 112.507 51.1027C112.417 50.969 112.417 50.8352 112.417 50.6569C112.417 50.4786 112.462 50.3003 112.551 50.1666C112.641 50.0329 112.819 49.8991 112.998 49.81C113.221 49.7208 113.444 49.6763 113.757 49.6763C113.98 49.6763 114.158 49.7208 114.382 49.7654C114.605 49.81 114.739 49.8991 114.917 49.9883L114.694 50.4786C114.56 50.3895 114.382 50.3003 114.203 50.2557C114.024 50.2112 113.891 50.2112 113.712 50.2112C113.533 50.2112 113.399 50.2112 113.266 50.2557C113.132 50.3003 113.087 50.3449 113.042 50.4341C112.998 50.5232 112.953 50.5678 112.953 50.6569C112.953 50.7461 112.998 50.8352 113.042 50.9244C113.132 50.969 113.221 51.0581 113.31 51.0581C113.444 51.1027 113.578 51.1473 113.712 51.1473C113.846 51.1473 114.024 51.2364 114.158 51.281C114.292 51.3256 114.426 51.3701 114.56 51.4593C114.694 51.5484 114.783 51.6376 114.873 51.7267C114.962 51.8605 114.962 51.9942 114.962 52.1725C114.962 52.3508 114.917 52.5291 114.828 52.6628C114.739 52.7965 114.56 52.9303 114.382 53.0194C114.337 53.1531 114.069 53.1977 113.757 53.1977Z" fill="white"/>
<path d="M117.149 53.153V49.7207H118.667C119.024 49.7207 119.336 49.8099 119.649 49.9436C119.961 50.0773 120.14 50.3002 120.318 50.5231C120.497 50.7459 120.542 51.1025 120.542 51.4146C120.542 51.7712 120.452 52.0386 120.318 52.3061C120.14 52.5735 119.961 52.7518 119.649 52.8855C119.336 53.0193 119.024 53.1084 118.667 53.1084H117.149V53.153ZM117.774 52.6181H118.622C118.89 52.6181 119.113 52.5735 119.292 52.4844C119.47 52.3952 119.649 52.2615 119.738 52.0832C119.827 51.9049 119.917 51.682 119.917 51.4591C119.917 51.2363 119.872 51.0134 119.738 50.8351C119.649 50.6568 119.47 50.5231 119.292 50.4339C119.113 50.3448 118.89 50.3002 118.622 50.3002H117.774V52.6181Z" fill="white"/>
<path d="M121.836 52.6181H123.756V53.153H121.167V49.7207H123.666V50.2556H121.792V52.6181H121.836ZM121.792 51.1471H123.488V51.682H121.792V51.1471Z" fill="white"/>
<path d="M125.541 53.1977C125.273 53.1977 125.005 53.1531 124.782 53.064C124.559 52.9748 124.336 52.8857 124.202 52.752L124.425 52.2616C124.559 52.3508 124.738 52.4399 124.916 52.5291C125.139 52.6182 125.318 52.6182 125.541 52.6182C125.72 52.6182 125.854 52.6182 125.988 52.5737C126.077 52.5291 126.166 52.4845 126.255 52.3954C126.3 52.3062 126.345 52.2616 126.345 52.1725C126.345 52.0833 126.3 51.9942 126.211 51.905C126.121 51.8605 126.032 51.7713 125.898 51.7713C125.764 51.7267 125.63 51.6822 125.497 51.6822C125.363 51.6376 125.184 51.593 125.05 51.5484C124.916 51.5039 124.782 51.4593 124.648 51.3701C124.514 51.281 124.425 51.1918 124.336 51.1027C124.247 50.969 124.247 50.8352 124.247 50.6569C124.247 50.4786 124.291 50.3003 124.381 50.1666C124.47 50.0329 124.648 49.8991 124.827 49.81C125.05 49.7208 125.273 49.6763 125.586 49.6763C125.809 49.6763 125.988 49.7208 126.211 49.7654C126.434 49.81 126.568 49.8991 126.746 49.9883L126.523 50.4786C126.389 50.3895 126.211 50.3003 126.032 50.2557C125.854 50.2112 125.72 50.2112 125.541 50.2112C125.363 50.2112 125.229 50.2112 125.095 50.2557C124.961 50.3003 124.916 50.3449 124.872 50.4341C124.827 50.5232 124.782 50.5678 124.782 50.6569C124.782 50.7461 124.827 50.8352 124.872 50.9244C124.961 50.969 125.05 51.0581 125.139 51.0581C125.273 51.1027 125.407 51.1473 125.541 51.1473C125.675 51.1473 125.854 51.2364 125.988 51.281C126.121 51.3256 126.255 51.3701 126.389 51.4593C126.523 51.5484 126.612 51.6376 126.702 51.7267C126.791 51.8605 126.791 51.9942 126.791 52.1725C126.791 52.3508 126.746 52.5291 126.657 52.6628C126.568 52.7965 126.389 52.9303 126.211 53.0194C126.121 53.1531 125.854 53.1977 125.541 53.1977Z" fill="white"/>
<path d="M129.157 53.1976C128.889 53.1976 128.666 53.153 128.443 53.0639C128.219 52.9747 128.041 52.841 127.862 52.7073C127.684 52.529 127.55 52.3507 127.461 52.1278C127.371 51.9049 127.327 51.6821 127.327 51.4146C127.327 51.1472 127.371 50.9243 127.461 50.7014C127.55 50.4785 127.684 50.3002 127.862 50.1219C128.041 49.9436 128.219 49.8545 128.443 49.7653C128.666 49.6762 128.889 49.6316 129.157 49.6316C129.425 49.6316 129.693 49.6762 129.916 49.7653C130.139 49.8545 130.362 49.9882 130.496 50.2111L130.094 50.6122C129.96 50.4785 129.826 50.3894 129.693 50.3002C129.559 50.2556 129.38 50.2111 129.202 50.2111C129.023 50.2111 128.844 50.2556 128.71 50.3002C128.577 50.3448 128.443 50.4339 128.309 50.5677C128.219 50.6568 128.13 50.7905 128.041 50.9689C127.996 51.1026 127.952 51.2809 127.952 51.4592C127.952 51.6375 127.996 51.8158 128.041 51.9495C128.086 52.0832 128.175 52.217 128.309 52.3507C128.398 52.4398 128.532 52.529 128.71 52.6181C128.844 52.6627 129.023 52.7073 129.202 52.7073C129.38 52.7073 129.559 52.6627 129.693 52.6181C129.826 52.529 130.005 52.4398 130.094 52.3061L130.496 52.7073C130.317 52.8856 130.139 53.0193 129.916 53.153C129.693 53.153 129.425 53.1976 129.157 53.1976Z" fill="white"/>
<path d="M132.683 53.1976C132.415 53.1976 132.192 53.153 131.924 53.0639C131.701 52.9747 131.478 52.841 131.344 52.7073C131.166 52.529 131.032 52.3507 130.942 52.1278C130.853 51.9049 130.808 51.6821 130.808 51.4146C130.808 51.1472 130.853 50.9243 130.942 50.7014C131.032 50.4785 131.166 50.3002 131.344 50.1219C131.523 49.9436 131.701 49.8545 131.924 49.7653C132.148 49.6762 132.415 49.6316 132.683 49.6316C132.951 49.6316 133.174 49.6762 133.398 49.7653C133.621 49.8545 133.799 49.9882 133.978 50.1219C134.156 50.3002 134.29 50.4785 134.38 50.7014C134.469 50.9243 134.513 51.1472 134.513 51.4146C134.513 51.6821 134.469 51.9049 134.38 52.1278C134.29 52.3507 134.156 52.529 133.978 52.7073C133.799 52.8856 133.621 52.9747 133.398 53.0639C133.174 53.153 132.951 53.1976 132.683 53.1976ZM132.683 52.6627C132.862 52.6627 132.996 52.6181 133.174 52.5736C133.308 52.529 133.442 52.4398 133.576 52.3061C133.665 52.217 133.755 52.0832 133.844 51.9049C133.889 51.7712 133.933 51.5929 133.933 51.4146C133.933 51.2363 133.889 51.058 133.844 50.9243C133.799 50.7905 133.71 50.6568 133.576 50.5231C133.487 50.4339 133.353 50.3448 133.174 50.2556C133.04 50.2111 132.862 50.1665 132.683 50.1665C132.505 50.1665 132.371 50.2111 132.192 50.2556C132.058 50.3002 131.924 50.3894 131.791 50.5231C131.701 50.6122 131.612 50.746 131.523 50.9243C131.478 51.058 131.433 51.2363 131.433 51.4146C131.433 51.5929 131.478 51.7266 131.523 51.9049C131.567 52.0387 131.657 52.1724 131.791 52.3061C131.88 52.3953 132.014 52.4844 132.192 52.5736C132.326 52.6181 132.505 52.6627 132.683 52.6627Z" fill="white"/>
<path d="M135.183 53.153V49.7207H135.719L137.861 52.3506H137.594V49.7207H138.218V53.153H137.727L135.54 50.5231H135.808V53.153H135.183Z" fill="white"/>
<path d="M139.87 53.153V50.2556H138.709V49.7207H141.656V50.2556H140.495V53.153H139.87Z" fill="white"/>
<path d="M142.102 53.153V49.7207H143.53C143.843 49.7207 144.111 49.7653 144.334 49.8544C144.557 49.9436 144.736 50.0773 144.825 50.2556C144.959 50.4339 145.004 50.6568 145.004 50.9242C145.004 51.1917 144.959 51.37 144.825 51.5929C144.691 51.7712 144.557 51.9049 144.334 51.994C144.111 52.0832 143.843 52.1278 143.53 52.1278H142.459L142.727 51.8603V53.153H142.102ZM142.772 51.9495L142.504 51.6374H143.53C143.798 51.6374 144.021 51.5929 144.155 51.4591C144.289 51.3254 144.379 51.1917 144.379 50.9688C144.379 50.7459 144.289 50.5676 144.155 50.4785C144.021 50.3448 143.798 50.3002 143.53 50.3002H142.504L142.772 49.9882V51.9495ZM144.379 53.153L143.53 51.9049H144.2L145.093 53.153H144.379Z" fill="white"/>
<path d="M145.227 53.153L146.789 49.7207H147.414L148.976 53.153H148.307L146.968 50.0773H147.235L145.896 53.153H145.227ZM145.941 52.3506L146.119 51.8603H147.95L148.128 52.3506H145.941Z" fill="white"/>
<path d="M150.94 53.1976C150.673 53.1976 150.449 53.153 150.226 53.0639C150.003 52.9747 149.824 52.841 149.646 52.7073C149.467 52.529 149.333 52.3507 149.244 52.1278C149.155 51.9049 149.11 51.6821 149.11 51.4146C149.11 51.1472 149.155 50.9243 149.244 50.7014C149.333 50.4785 149.467 50.3002 149.646 50.1219C149.824 49.9436 150.003 49.8545 150.226 49.7653C150.449 49.6762 150.673 49.6316 150.94 49.6316C151.208 49.6316 151.476 49.6762 151.699 49.7653C151.922 49.8545 152.146 49.9882 152.28 50.2111L151.878 50.6122C151.744 50.4785 151.61 50.3894 151.476 50.3002C151.342 50.2556 151.164 50.2111 150.985 50.2111C150.806 50.2111 150.628 50.2556 150.494 50.3002C150.36 50.3448 150.226 50.4339 150.092 50.5677C150.003 50.6568 149.914 50.7905 149.824 50.9688C149.78 51.1026 149.735 51.2809 149.735 51.4592C149.735 51.6375 149.78 51.8158 149.824 51.9495C149.869 52.0832 149.958 52.217 150.092 52.3507C150.182 52.4398 150.315 52.529 150.494 52.6181C150.628 52.6627 150.806 52.7073 150.985 52.7073C151.164 52.7073 151.342 52.6627 151.476 52.6181C151.61 52.529 151.789 52.4398 151.878 52.3061L152.28 52.7073C152.101 52.8856 151.922 53.0193 151.699 53.153C151.476 53.2868 151.208 53.1976 150.94 53.1976Z" fill="white"/>
<path d="M153.574 53.153V50.2556H152.413V49.7207H155.315V50.2556H154.199V53.153H153.574Z" fill="white"/>
<path d="M157.234 53.1976C156.788 53.1976 156.386 53.0638 156.118 52.7964C155.851 52.5289 155.717 52.1278 155.717 51.6374V49.7207H156.342V51.6374C156.342 51.994 156.431 52.2615 156.565 52.3952C156.699 52.5735 156.922 52.6181 157.19 52.6181C157.458 52.6181 157.681 52.5289 157.815 52.3952C157.949 52.2169 158.038 51.994 158.038 51.6374V49.7207H158.663V51.6374C158.663 52.1278 158.529 52.5289 158.261 52.7964C158.083 53.0638 157.681 53.1976 157.234 53.1976Z" fill="white"/>
<path d="M159.6 53.153V49.7207H161.029C161.341 49.7207 161.609 49.7653 161.832 49.8544C162.055 49.9436 162.234 50.0773 162.323 50.2556C162.457 50.4339 162.502 50.6568 162.502 50.9242C162.502 51.1917 162.457 51.37 162.323 51.5929C162.189 51.7712 162.055 51.9049 161.832 51.994C161.609 52.0832 161.341 52.1278 161.029 52.1278H159.957L160.225 51.8603V53.153H159.6ZM160.27 51.9495L160.002 51.6374H161.029C161.297 51.6374 161.52 51.5929 161.654 51.4591C161.788 51.3254 161.877 51.1917 161.877 50.9688C161.877 50.7459 161.788 50.5676 161.654 50.4785C161.52 50.3448 161.297 50.3002 161.029 50.3002H160.002L160.27 49.9882V51.9495ZM161.877 53.153L161.029 51.9049H161.698L162.591 53.153H161.877Z" fill="white"/>
<path d="M162.725 53.153L164.287 49.7207H164.912L166.475 53.153H165.805L164.466 50.0773H164.734L163.395 53.153H162.725ZM163.439 52.3506L163.618 51.8603H165.448L165.626 52.3506H163.439Z" fill="white"/>
<path d="M166.876 53.153V49.7207H167.412L169.555 52.3506H169.287V49.7207H169.912V53.153H169.421L167.278 50.5231H167.501V53.153H166.876Z" fill="white"/>
<path d="M171.563 53.153V50.2556H170.403V49.7207H173.349V50.2556H172.188V53.153H171.563Z" fill="white"/>
<path d="M174.465 52.6181H176.384V53.153H173.795V49.7207H176.295V50.2556H174.42V52.6181H174.465ZM174.42 51.1471H176.116V51.682H174.42V51.1471Z" fill="white"/>
<path d="M178.17 53.1977C177.902 53.1977 177.634 53.1531 177.411 53.064C177.188 52.9748 176.965 52.8857 176.831 52.752L177.054 52.2616C177.188 52.3508 177.366 52.4399 177.545 52.5291C177.768 52.6182 177.947 52.6182 178.17 52.6182C178.348 52.6182 178.482 52.6182 178.616 52.5737C178.75 52.5291 178.795 52.4845 178.884 52.3954C178.929 52.3062 178.973 52.2616 178.973 52.1725C178.973 52.0833 178.929 51.9942 178.839 51.905C178.75 51.8605 178.661 51.7713 178.527 51.7713C178.393 51.7267 178.259 51.6822 178.125 51.6822C177.991 51.6376 177.813 51.593 177.679 51.5484C177.545 51.5039 177.411 51.4593 177.277 51.3701C177.143 51.281 177.054 51.1918 176.965 51.1027C176.875 50.969 176.875 50.8352 176.875 50.6569C176.875 50.4786 176.92 50.3003 177.009 50.1666C177.099 50.0329 177.277 49.8991 177.456 49.81C177.679 49.7208 177.902 49.6763 178.214 49.6763C178.438 49.6763 178.616 49.7208 178.839 49.7654C179.063 49.81 179.197 49.8991 179.375 49.9883L179.152 50.4786C179.018 50.3895 178.839 50.3003 178.661 50.2557C178.482 50.2112 178.348 50.2112 178.17 50.2112C177.991 50.2112 177.857 50.2112 177.723 50.2557C177.59 50.3003 177.545 50.3449 177.5 50.4341C177.456 50.5232 177.411 50.5678 177.411 50.6569C177.411 50.7461 177.456 50.8352 177.5 50.9244C177.59 50.969 177.679 51.0581 177.768 51.0581C177.902 51.1027 178.036 51.1473 178.17 51.1473C178.304 51.1473 178.482 51.2364 178.616 51.281C178.75 51.3256 178.884 51.3701 179.018 51.4593C179.152 51.5484 179.241 51.6376 179.33 51.7267C179.42 51.8605 179.42 51.9942 179.42 52.1725C179.42 52.3508 179.375 52.5291 179.286 52.6628C179.197 52.7965 179.018 52.9303 178.839 53.0194C178.75 53.1531 178.482 53.1977 178.17 53.1977Z" fill="white"/>
</g>
<defs>
<clipPath id="clip0_2_97">
<rect width="180" height="55" fill="white"/>
</clipPath>
</defs>
</svg>
