<svg width="31" height="32" viewBox="0 0 31 32" fill="none" xmlns="http://www.w3.org/2000/svg">
<g clip-path="url(#clip0_23_1411)">
<path d="M0.661348 15.4341C0.660621 18.0591 1.3465 20.6222 2.65068 22.8813L0.536621 30.6L8.43581 28.5289C10.6206 29.7183 13.0685 30.3415 15.5561 30.3416H15.5627C23.7746 30.3416 30.4594 23.6593 30.4629 15.4459C30.4645 11.4659 28.9159 7.72337 26.1024 4.9077C23.2894 2.09227 19.5482 0.54094 15.5621 0.539124C7.34911 0.539124 0.664859 7.22108 0.661469 15.4341" fill="url(#paint0_linear_23_1411)"/>
<path d="M0.12957 15.4293C0.128723 18.1487 0.83918 20.8034 2.18986 23.1434L0 31.1389L8.18243 28.9935C10.4369 30.2227 12.9753 30.8708 15.5582 30.8718H15.5649C24.0715 30.8718 30.9964 23.9491 31 15.4416C31.0015 11.3186 29.3972 7.44157 26.4832 4.52503C23.5688 1.60885 19.6938 0.00169531 15.5649 0C7.05686 0 0.132961 6.92172 0.12957 15.4293ZM5.00238 22.7404L4.69686 22.2555C3.41254 20.2133 2.73466 17.8535 2.73563 15.4303C2.73841 8.35898 8.49327 2.60594 15.5698 2.60594C18.9967 2.60739 22.2173 3.9433 24.6397 6.36711C27.0619 8.79116 28.3948 12.0135 28.3939 15.4407C28.3908 22.5119 22.6358 28.2657 15.5649 28.2657H15.5598C13.2575 28.2645 10.9994 27.6462 9.0302 26.4778L8.56157 26.1998L3.70595 27.4729L5.00238 22.7403V22.7404Z" fill="url(#paint1_linear_23_1411)"/>
<path d="M11.7074 8.97888C11.4184 8.33672 11.1144 8.32376 10.8396 8.3125C10.6146 8.30281 10.3574 8.30354 10.1004 8.30354C9.84325 8.30354 9.42535 8.40029 9.07212 8.78598C8.71853 9.17202 7.72217 10.1049 7.72217 12.0023C7.72217 13.8999 9.10421 15.7336 9.29687 15.9912C9.48977 16.2483 11.9649 20.2666 15.885 21.8125C19.1429 23.0972 19.8059 22.8417 20.5129 22.7773C21.2201 22.7131 22.7948 21.8446 23.1161 20.944C23.4376 20.0436 23.4376 19.2717 23.3412 19.1104C23.2448 18.9497 22.9876 18.8532 22.6019 18.6604C22.2161 18.4675 20.32 17.5345 19.9666 17.4058C19.613 17.2772 19.3559 17.213 19.0987 17.5992C18.8415 17.9847 18.1029 18.8532 17.8778 19.1104C17.6529 19.3682 17.4278 19.4003 17.0423 19.2074C16.6563 19.0139 15.4143 18.6072 13.9407 17.2934C12.7942 16.2711 12.0201 15.0087 11.7952 14.6226C11.5702 14.237 11.7711 14.028 11.9644 13.8358C12.1377 13.663 12.3502 13.3855 12.5433 13.1604C12.7356 12.9351 12.7997 12.7744 12.9284 12.5172C13.0571 12.2598 12.9927 12.0346 12.8964 11.8417C12.7997 11.6488 12.0503 9.74141 11.7074 8.97888Z" fill="white"/>
</g>
<defs>
<linearGradient id="paint0_linear_23_1411" x1="15.4998" y1="30.6" x2="15.4998" y2="0.539124" gradientUnits="userSpaceOnUse">
<stop stop-color="#1FAF38"/>
<stop offset="1" stop-color="#60D669"/>
</linearGradient>
<linearGradient id="paint1_linear_23_1411" x1="15.5" y1="31.1389" x2="15.5" y2="0" gradientUnits="userSpaceOnUse">
<stop stop-color="#F9F9F9"/>
<stop offset="1" stop-color="white"/>
</linearGradient>
<clipPath id="clip0_23_1411">
<rect width="31" height="31.2422" fill="white"/>
</clipPath>
</defs>
</svg>
