<svg width="24" height="24" viewBox="0 0 24 24" fill="none" xmlns="http://www.w3.org/2000/svg">
<g clip-path="url(#clip0_34_339)">
<path d="M17.0826 0.979004H6.91741C3.63741 0.979004 0.979004 3.63788 0.979004 6.91741V17.0826C0.979004 20.3626 3.63788 23.021 6.91788 23.021H17.0821C20.3621 23.021 23.021 20.3621 23.021 17.0821V6.91741C23.021 3.63741 20.3621 0.979004 17.0821 0.979004H17.0826Z" stroke="white" stroke-miterlimit="10"/>
<path d="M12 17.3206C14.9385 17.3206 17.3206 14.9385 17.3206 12C17.3206 9.06155 14.9385 6.67944 12 6.67944C9.06155 6.67944 6.67944 9.06155 6.67944 12C6.67944 14.9385 9.06155 17.3206 12 17.3206Z" stroke="white" stroke-miterlimit="10"/>
<path d="M18.4605 6.67939C19.0901 6.67939 19.6005 6.169 19.6005 5.5394C19.6005 4.9098 19.0901 4.39941 18.4605 4.39941C17.8309 4.39941 17.3206 4.9098 17.3206 5.5394C17.3206 6.169 17.8309 6.67939 18.4605 6.67939Z" fill="white"/>
</g>
<defs>
<clipPath id="clip0_34_339">
<rect width="24" height="24" fill="white"/>
</clipPath>
</defs>
</svg>
