<svg width="24" height="24" viewBox="0 0 24 24" fill="none" xmlns="http://www.w3.org/2000/svg">
<g clip-path="url(#clip0_34_337)">
<path d="M19.9311 5.49047C19.7666 5.41104 19.6064 5.32397 19.4512 5.2296C19.0002 4.95126 18.5866 4.62333 18.2195 4.25287C17.2997 3.27108 16.9563 2.27513 16.8306 1.57848H16.835C16.7299 0.999111 16.7732 0.625 16.7808 0.625H12.5937V15.734C12.5937 15.9363 12.5937 16.1375 12.5851 16.3356C12.5851 16.3599 12.5818 16.3822 12.5807 16.4095C12.5807 16.4196 12.5807 16.4317 12.5775 16.4428V16.4519C12.5335 16.9939 12.3475 17.5175 12.0358 17.9766C11.7241 18.4357 11.2963 18.8163 10.79 19.0849C10.2618 19.3653 9.66434 19.5124 9.05664 19.5115C7.10664 19.5115 5.52498 18.0272 5.52498 16.1941C5.52498 14.3599 7.10664 12.8756 9.05664 12.8756C9.42606 12.8756 9.79331 12.9302 10.1443 13.0374L10.1497 9.05767C9.08374 8.92931 8.00082 9.00859 6.96932 9.29052C5.93782 9.57245 4.98014 10.0509 4.15673 10.6957C3.43507 11.2806 2.82833 11.9787 2.36381 12.7583C2.18723 13.0425 1.51989 14.186 1.43973 16.0404C1.38881 17.092 1.72789 18.184 1.88931 18.6339V18.644C1.99006 18.9089 2.38439 19.8149 3.02573 20.5783C3.5429 21.191 4.15396 21.7293 4.83923 22.1758V22.1657L4.84898 22.1758C6.87481 23.4599 9.12273 23.376 9.12273 23.376C9.51164 23.3608 10.8149 23.376 12.2947 22.7218C13.936 21.9958 14.8698 20.915 14.8698 20.915C15.4668 20.269 15.9416 19.5328 16.2738 18.738C16.653 17.8078 16.7786 16.6936 16.7786 16.2487V8.23159C16.8296 8.2599 17.5066 8.67749 17.5066 8.67749C17.5066 8.67749 18.4816 9.2609 20.0016 9.64007C21.0914 9.91003 22.5615 9.96767 22.5615 9.96767V6.08803C22.0469 6.14061 21.0015 5.98894 19.9301 5.49148L19.9311 5.49047Z" stroke="white" stroke-linejoin="round"/>
</g>
<defs>
<clipPath id="clip0_34_337">
<rect width="24" height="24" fill="white"/>
</clipPath>
</defs>
</svg>
